<svg width="100" height="80" viewBox="0 0 100 80" fill="none" xmlns="http://www.w3.org/2000/svg">
<g filter="url(#filter0_d_374_1657)">
<path d="M39.2082 67.3337H27.0832C20.8332 67.3337 15.3332 65.2503 10.8748 60.792C6.4165 56.417 4.1665 51.042 4.1665 44.7503C4.1665 39.3337 5.7915 34.5003 9.0415 30.2503C12.2107 26.0953 16.7635 23.2128 21.8748 22.1253C23.6248 15.7503 27.0832 10.5837 32.2915 6.62532C37.4998 2.75032 43.4165 0.666992 49.9998 0.666992C58.1248 0.666992 65.0415 3.50033 70.6665 9.16699C76.3332 14.792 79.1665 21.7087 79.1665 29.8337C83.9582 30.3753 87.9582 32.4587 91.0832 36.0837C93.7498 39.1253 95.2498 42.5837 95.6665 46.5003H74.9998C73.057 43.9153 70.5402 41.817 67.6479 40.3708C64.7556 38.9247 61.5669 38.1702 58.3332 38.167C46.6665 38.167 37.4998 47.3337 37.4998 59.0003C37.4998 62.0003 38.1248 64.792 39.2082 67.3337ZM95.8332 54.8337V63.167H87.4998V71.5003H79.1665V63.167H69.9998C68.3332 68.167 63.7498 71.5003 58.3332 71.5003C51.2498 71.5003 45.8332 66.0837 45.8332 59.0003C45.8332 51.917 51.2498 46.5003 58.3332 46.5003C63.7498 46.5003 68.3332 49.8337 69.9998 54.8337H95.8332ZM62.4998 59.0003C62.4998 56.917 60.8332 54.8337 58.3332 54.8337C55.8332 54.8337 54.1665 56.917 54.1665 59.0003C54.1665 61.0837 55.8332 63.167 58.3332 63.167C60.8332 63.167 62.4998 61.0837 62.4998 59.0003Z" fill="url(#paint0_linear_374_1657)"/>
</g>
<defs>
<filter id="filter0_d_374_1657" x="0.166504" y="0.666992" width="99.6665" height="78.833" filterUnits="userSpaceOnUse" color-interpolation-filters="sRGB">
<feFlood flood-opacity="0" result="BackgroundImageFix"/>
<feColorMatrix in="SourceAlpha" type="matrix" values="0 0 0 0 0 0 0 0 0 0 0 0 0 0 0 0 0 0 127 0" result="hardAlpha"/>
<feOffset dy="4"/>
<feGaussianBlur stdDeviation="2"/>
<feComposite in2="hardAlpha" operator="out"/>
<feColorMatrix type="matrix" values="0 0 0 0 0 0 0 0 0 0 0 0 0 0 0 0 0 0 0.25 0"/>
<feBlend mode="normal" in2="BackgroundImageFix" result="effect1_dropShadow_374_1657"/>
<feBlend mode="normal" in="SourceGraphic" in2="effect1_dropShadow_374_1657" result="shape"/>
</filter>
<linearGradient id="paint0_linear_374_1657" x1="18.1816" y1="0.363966" x2="66.3635" y2="71.2731" gradientUnits="userSpaceOnUse">
<stop stop-color="#624699"/>
<stop offset="1" stop-color="#AEA1C9"/>
</linearGradient>
</defs>
</svg>
